<?xml version="1.0" encoding="UTF-8"?>
<svg id="Lag_2" data-name="Lag 2" xmlns="http://www.w3.org/2000/svg" viewBox="0 0 1040.985 343.497">
  <g id="Lag_1-2" data-name="Lag 1">
    <g>
      <g>
        <text transform="translate(411.128 315.675)" fill="#fff" font-family="CenturyGothic, &apos;Century Gothic&apos;" font-size="90.734"><tspan x="0" y="0" letter-spacing=".02em">i</tspan><tspan x="19.979" y="0" letter-spacing="-.04em"> </tspan><tspan x="41.47" y="0" letter-spacing="-.004em">p</tspan><tspan x="103" y="0" letter-spacing="-.02em">r</tspan><tspan x="128.439" y="0" letter-spacing=".005em">a</tspan><tspan x="190.919" y="0" letter-spacing=".024em">k</tspan><tspan x="238.65" y="0" letter-spacing=".007em">s</tspan><tspan x="274.489" y="0" letter-spacing=".012em">i</tspan><tspan x="293.697" y="0" letter-spacing=".02em">s</tspan></text>
        <text transform="translate(387.946 225.193)" fill="#fff" font-family="MS-UIGothic, &apos;MS UI Gothic&apos;" font-size="262.043"><tspan x="0" y="0" letter-spacing="-.022em">S</tspan><tspan x="151.976" y="0" letter-spacing=".033em">T</tspan><tspan x="315.188" y="0" letter-spacing="-.019em">E</tspan><tspan x="458.553" y="0">M</tspan></text>
      </g>
      <g>
        <g>
          <rect x="243.057" y="190.262" width="42.893" height="148.024" fill="#fff" stroke-width="0"/>
          <rect x="243.057" y="190.262" width="42.893" height="148.024" transform="translate(528.777 -.229) rotate(90)" fill="#fff" stroke-width="0"/>
        </g>
        <g>
          <polygon points="79.429 153.305 4.933 153.305 42.181 79.258 79.429 5.211 116.677 79.258 153.925 153.305 79.429 153.305" fill="#fff" stroke-width="0"/>
          <rect x="60.235" y="5.211" width="38.388" height="76.775" fill="#fff" stroke-width="0"/>
        </g>
        <path d="m119.143,195.484H39.714L0,264.274l39.714,68.778h79.429l39.714-68.778-39.714-68.79Zm-39.714,101.641c-18.151,0-32.85-14.712-32.85-32.85s14.7-32.85,32.85-32.85,32.85,14.7,32.85,32.85-14.712,32.85-32.85,32.85Z" fill="#fff" stroke-width="0"/>
        <rect x="190.491" y="114.716" width="38.554" height="38.554" fill="#fff" stroke-width="0"/>
        <rect x="299.961" y="5.211" width="38.554" height="148.059" fill="#fff" stroke-width="0"/>
        <rect x="245.226" y="52.018" width="38.554" height="101.251" fill="#fff" stroke-width="0"/>
      </g>
    </g>
  </g>
</svg>