<?xml version="1.0" encoding="UTF-8"?>
<svg id="Lag_2" data-name="Lag 2" xmlns="http://www.w3.org/2000/svg" viewBox="0 0 423.354 416.55">
  <g id="Lag_1-2" data-name="Lag 1">
    <polygon points="423.354 297.17 423.354 350.81 357.613 350.81 357.613 416.55 303.963 416.55 303.963 350.81 238.233 350.81 238.233 297.17 303.963 297.17 303.963 231.43 357.613 231.43 357.613 297.17 423.354 297.17" fill="#dd4127" stroke-width="0"/>
    <polygon points="192.504 185.21 6.173 185.21 52.754 92.6 75.334 47.71 75.334 0 123.334 0 123.334 47.71 145.914 92.6 192.504 185.21" opacity=".15" stroke-width="0"/>
    <path d="m149.002,237.958H49.667L0,323.987l49.667,86.014h99.334l49.667-86.014-49.667-86.03Zm-49.667,127.113c-22.699,0-41.083-18.399-41.083-41.083s18.384-41.083,41.083-41.083,41.083,18.384,41.083,41.083-18.399,41.083-41.083,41.083Z" opacity=".15" stroke-width="0"/>
    <rect x="238.229" y="136.948" width="48.216" height="48.216" opacity=".15" stroke-width="0"/>
    <rect x="375.134" width="48.216" height="185.164" opacity=".15" stroke-width="0"/>
    <rect x="306.682" y="58.538" width="48.216" height="126.626" opacity=".15" stroke-width="0"/>
  </g>
</svg>