<?xml version="1.0" encoding="UTF-8"?>
<svg id="SDU_logo" data-name="SDU logo" xmlns="http://www.w3.org/2000/svg" viewBox="0 0 708.534 272.764">
  <path id="SDU_logo-2" data-name="SDU logo" d="m552.692,141.263c-7.727,1.868-22.68,4.178-32.638,4.178-20.564,0-25.149-11.733-26.172-16.802-8.027-1.819-21.255-.859-27.622.593,6.275,1.377,9.991,6.232,11.112,15.19.749-.264,3.891-1.295,7.145-1.295,6.976,0,12.889,8.048,12.889,16.963,0,13.192-7.404,22.975-14.566,22.975-4.881,0-6.402-2.378-8.051-2.378s-2.979,2.449-7.664,2.449c-7.292,0-15.323-10.805-15.323-23.095,0-5.67,3.039-16.999,15.075-16.999,3.074,0,4.632.804,5.003,1.026-.205-6.209-4.658-11.783-12.688-11.783-6.825,0-23.399,6.581-35.385,16.728l-3.56-4.976c11.287-8.455,35.507-20.571,63.576-20.571,3.882,0,7.407.286,10.364.775,1.357-3.619,5.603-10.629,18.117-10.629,19.625,0,34.111,16.695,40.388,27.652Zm-39.008-64.352c-36.377,7.926-50.362,27.101-50.362,41.294,38.002-4.593,33.357-28.426,50.362-41.294Zm-109.169,14.011h-17.533l.003,53.896c0,22.377-18.975,22.725-21.425,22.725s-21.425-.348-21.425-22.726l-.005-53.894h-17.533l.003,52.601c0,28.184,18.518,39.612,38.959,39.612s38.961-11.429,38.961-39.612l-.005-52.601Zm-92.191,45.461c0,3.451-.415,45.461-49.354,45.461h-28.567v-90.921h28.567c48.939,0,49.354,42.01,49.354,45.461Zm-17.535,0c0-10.982-6.29-29.875-29.869-29.875h-12.986v59.75h12.986c23.58,0,29.869-18.893,29.869-29.875Zm-138.948,33.109c9.344,8.574,20.644,13.645,32.85,13.645,16.363,0,30.784-11.172,30.784-27.273,0-30.645-41.954-26.113-41.954-40.789,0-7.004,7.41-9.864,14.029-9.864,5.977,0,12.076,2.594,15.715,5.978l9.097-12.992c-8.569-6.359-17.145-8.57-26.372-8.57-15.061,0-29.994,9.348-29.994,25.585,0,29.001,41.945,22.852,41.945,40.916,0,6.612-5.455,11.417-13.25,11.417-8.305,0-16.226-4.285-21.426-9.992l-11.424,11.941Z" fill="#fff" stroke-width="0"/>
</svg>