<?xml version="1.0" encoding="UTF-8"?>
<svg id="SDU_logo" data-name="SDU logo" xmlns="http://www.w3.org/2000/svg" viewBox="0 0 708.534 272.764">
  <g>
    <path d="m163.109,80.057v114.22h114.219v-114.22h-114.219Zm107.946,107.947h-101.673v-101.675h101.673v101.675Z" fill="#fff" stroke-width="0"/>
    <path d="m260.315,145.076v33.042c0,.173-.141.314-.314.314h-4.445c-.173,0-.314-.141-.314-.314v-23.474l-8.279,23.578c-.044.125-.162.21-.296.21h-3.091c-.133,0-.252-.084-.296-.21l-8.279-23.578v23.474c0,.173-.141.314-.314.314h-4.444c-.174,0-.314-.141-.314-.314v-33.042c0-.173.139-.314.314-.314h5.989c.134,0,.253.085.297.211l8.591,24.842,8.592-24.842c.044-.125.163-.211.296-.211h5.99c.173,0,.314.141.314.314Z" fill="#fff" stroke-width="0"/>
    <path d="m260.229,96.186v3.672c0,.173-.141.314-.314.314h-12.207v29.057c0,.173-.141.314-.314.314h-4.444c-.173,0-.314-.141-.314-.314v-29.057h-12.332c-.173,0-.314-.141-.314-.314v-3.672c0-.173.141-.314.314-.314h29.61c.173,0,.314.141.314.314Z" fill="#fff" stroke-width="0"/>
    <path d="m204.191,120.439c0,2.651-.941,4.935-2.796,6.792-1.985,1.983-5.245,2.99-9.69,2.99-4.317,0-7.708-1.201-10.077-3.569-1.728-1.725-2.604-4.27-2.604-7.565,0-.173.141-.314.314-.314h4.445c.173,0,.314.141.314.314,0,2.224.489,3.84,1.454,4.802,1.346,1.35,3.483,2.034,6.348,2.034,2.607,0,4.548-.62,5.768-1.84.965-.965,1.454-1.931,1.454-2.87,0-1.083-.349-1.958-1.068-2.676-.615-.612-1.625-1.242-3-1.869-1.281-.639-2.966-1.416-5.021-2.317-2.48-1.1-4.258-1.898-5.598-2.509-1.063-.399-2.007-1.007-2.806-1.807-1.214-1.216-1.83-2.85-1.83-4.86,0-2.522.941-4.742,2.796-6.598.927-.927,2.109-1.627,3.534-2.095,1.425-.467,3.094-.703,4.997-.703,4.057,0,7.187,1.071,9.304,3.184,1.855,1.859,2.796,4.079,2.796,6.598,0,.174-.141.314-.314.314h-4.444c-.173,0-.314-.139-.314-.314,0-1.469-.475-2.661-1.454-3.642-1.093-1.093-2.839-1.647-5.189-1.647-2.607,0-4.417.489-5.382,1.454-.848.848-1.261,1.786-1.261,2.869,0,1.071.23,1.842.68,2.29.608.612,1.743,1.238,3.37,1.863.005.001.009.003.013.005,2.867,1.247,6.151,2.7,10.043,4.441,1.06.4,2.07,1.073,3.001,2.001,1.472,1.474,2.217,3.239,2.217,5.245Z" fill="#fff" stroke-width="0"/>
    <path d="m203.087,174.429v3.671c0,.173-.141.314-.314.314h-22.222c-.173,0-.314-.141-.314-.314v-33.042c0-.173.141-.314.314-.314h21.256c.173,0,.314.141.314.314v3.672c0,.173-.141.314-.314.314h-16.497v9.614h15.338c.173,0,.314.141.314.314v3.671c0,.173-.141.314-.314.314h-15.338v11.16h17.463c.173,0,.314.141.314.314Z" fill="#fff" stroke-width="0"/>
  </g>
  <g>
    <path d="m301.809,160.021c.571,0,1.059.203,1.463.609.404.406.607.896.607,1.469,0,.562-.202,1.045-.607,1.451-.404.406-.892.609-1.463.609-.559,0-1.041-.203-1.445-.609-.404-.406-.606-.89-.606-1.451,0-.573.202-1.063.606-1.469.404-.406.886-.609,1.445-.609Zm-1.245,8.027h2.508v19.494h-2.508v-19.494Z" fill="#fff" stroke-width="0"/>
    <path d="m317.747,168.048h2.508v3.584c.991-1.362,2.13-2.383,3.419-3.064,1.289-.681,2.727-1.021,4.314-1.021,2.768,0,5.137.998,7.106,2.992,1.969,1.995,2.954,4.396,2.954,7.203,0,2.867-.976,5.301-2.927,7.301-1.951,2.001-4.305,3.001-7.061,3.001-1.552,0-2.977-.322-4.278-.967s-2.476-1.606-3.526-2.885v10.482h-2.508v-26.626Zm10.034,1.917c-2.169,0-3.995.758-5.479,2.273-1.484,1.515-2.225,3.401-2.225,5.656,0,1.48.331,2.81.992,3.991.661,1.181,1.609,2.118,2.842,2.81,1.234.692,2.535,1.038,3.906,1.038,1.347,0,2.613-.349,3.799-1.047,1.186-.698,2.13-1.673,2.834-2.926.703-1.253,1.055-2.565,1.055-3.937,0-1.384-.349-2.696-1.046-3.937s-1.636-2.205-2.815-2.891c-1.18-.686-2.467-1.029-3.861-1.029Z" fill="#fff" stroke-width="0"/>
    <path d="m341.646,168.048h2.562v2.849c.764-1.123,1.571-1.962,2.419-2.517.848-.555,1.732-.833,2.652-.833.693,0,1.433.221,2.222.663l-1.308,2.114c-.526-.227-.968-.34-1.326-.34-.836,0-1.643.344-2.419,1.03-.777.687-1.368,1.753-1.774,3.198-.311,1.111-.466,3.357-.466,6.737v6.594h-2.562v-19.494Z" fill="#fff" stroke-width="0"/>
    <path d="m372.307,168.048v19.494h-2.473v-3.351c-1.051,1.278-2.231,2.24-3.539,2.885s-2.739.967-4.291.967c-2.759,0-5.115-1-7.068-3.001-1.953-2.001-2.93-4.435-2.93-7.301,0-2.807.985-5.208,2.956-7.203,1.971-1.995,4.342-2.992,7.113-2.992,1.601,0,3.049.34,4.345,1.021,1.296.681,2.434,1.702,3.413,3.064v-3.584h2.473Zm-10.025,1.917c-1.396,0-2.685.343-3.866,1.029-1.182.686-2.121,1.65-2.819,2.891s-1.047,2.553-1.047,3.937c0,1.372.352,2.685,1.056,3.937.704,1.253,1.65,2.228,2.837,2.926,1.187.698,2.461,1.047,3.821,1.047,1.372,0,2.673-.346,3.902-1.038,1.229-.692,2.174-1.629,2.837-2.81.662-1.181.993-2.512.993-3.991,0-2.255-.743-4.14-2.228-5.656-1.485-1.515-3.314-2.273-5.485-2.273Z" fill="#fff" stroke-width="0"/>
    <path d="m378.135,160.523h2.508v15.393l9.038-7.868h3.684l-10.715,9.299,11.342,10.195h-3.531l-9.818-8.777v8.777h-2.508v-27.02Z" fill="#fff" stroke-width="0"/>
    <path d="m407.258,170.181l-1.613,1.666c-1.342-1.302-2.653-1.953-3.934-1.953-.815,0-1.512.269-2.093.806-.581.537-.871,1.165-.871,1.881,0,.633.239,1.236.718,1.81.479.585,1.484,1.272,3.017,2.061,1.867.967,3.136,1.899,3.807,2.795.658.908.987,1.929.987,3.064,0,1.601-.563,2.956-1.687,4.067-1.124,1.111-2.53,1.666-4.217,1.666-1.125,0-2.199-.245-3.221-.735-1.023-.49-1.869-1.165-2.539-2.025l1.577-1.792c1.281,1.445,2.64,2.168,4.077,2.168,1.006,0,1.861-.322,2.568-.968.706-.645,1.06-1.403,1.06-2.275,0-.717-.234-1.356-.7-1.917-.467-.549-1.52-1.242-3.16-2.078-1.76-.908-2.957-1.804-3.591-2.688-.634-.884-.952-1.893-.952-3.028,0-1.481.505-2.711,1.517-3.691,1.011-.979,2.288-1.469,3.832-1.469,1.795,0,3.601.878,5.42,2.634Z" fill="#fff" stroke-width="0"/>
    <path d="m412.82,160.021c.571,0,1.059.203,1.463.609.404.406.607.896.607,1.469,0,.562-.202,1.045-.607,1.451-.404.406-.892.609-1.463.609-.559,0-1.041-.203-1.445-.609-.404-.406-.606-.89-.606-1.451,0-.573.202-1.063.606-1.469.404-.406.886-.609,1.445-.609Zm-1.245,8.027h2.509v19.494h-2.509v-19.494Z" fill="#fff" stroke-width="0"/>
    <path d="m429.52,170.181l-1.613,1.666c-1.342-1.302-2.653-1.953-3.934-1.953-.815,0-1.512.269-2.093.806-.581.537-.871,1.165-.871,1.881,0,.633.239,1.236.718,1.81.479.585,1.484,1.272,3.017,2.061,1.867.967,3.136,1.899,3.807,2.795.658.908.987,1.929.987,3.064,0,1.601-.563,2.956-1.687,4.067-1.124,1.111-2.53,1.666-4.217,1.666-1.125,0-2.199-.245-3.221-.735-1.023-.49-1.869-1.165-2.539-2.025l1.577-1.792c1.281,1.445,2.64,2.168,4.077,2.168,1.006,0,1.861-.322,2.568-.968.706-.645,1.06-1.403,1.06-2.275,0-.717-.234-1.356-.7-1.917-.467-.549-1.52-1.242-3.16-2.078-1.76-.908-2.957-1.804-3.591-2.688-.634-.884-.952-1.893-.952-3.028,0-1.481.505-2.711,1.517-3.691,1.011-.979,2.288-1.469,3.832-1.469,1.795,0,3.601.878,5.42,2.634Z" fill="#fff" stroke-width="0"/>
  </g>
  <g>
    <path d="m302.431,83.886c3.862-3.862,9.793-5.796,17.801-5.796,8.551,0,15.039,2.212,19.457,6.624,3.862,3.868,5.796,8.422,5.796,13.661h-9.521c0-3.312-1.106-6.067-3.312-8.28-2.484-2.484-6.352-3.726-11.591-3.726-5.796,0-9.8,1.106-12.005,3.312-1.934,1.934-2.898,4.14-2.898,6.624s.55,4.282,1.656,5.382c1.378,1.384,3.862,2.762,7.452,4.14,6.345,2.762,13.519,5.938,21.527,9.521,2.206.828,4.276,2.212,6.21,4.14,3.034,3.04,4.554,6.624,4.554,10.763,0,5.524-1.934,10.214-5.796,14.075-4.14,4.14-10.906,6.21-20.285,6.21-9.107,0-16.145-2.484-21.113-7.451-3.59-3.583-5.382-8.829-5.382-15.731h9.521c0,4.968,1.1,8.558,3.312,10.763,3.034,3.04,7.723,4.554,14.075,4.554,5.796,0,10.071-1.378,12.833-4.14,2.206-2.206,3.312-4.411,3.312-6.624,0-2.484-.828-4.554-2.484-6.21-1.384-1.378-3.59-2.756-6.624-4.14-2.762-1.378-6.352-3.034-10.763-4.968-4.968-2.206-8.972-3.997-12.005-5.382-2.212-.828-4.14-2.07-5.796-3.726-2.484-2.484-3.726-5.796-3.726-9.935,0-5.239,1.928-9.793,5.796-13.661Z" fill="#fff" stroke-width="0"/>
    <path d="m353.131,78.918h56.715v7.866h-23.596v62.924h-9.521v-62.924h-23.597v-7.866Z" fill="#fff" stroke-width="0"/>
    <path d="m423.278,78.918h45.537v7.866h-36.016v21.941h33.532v7.866h-33.532v25.252h38.086v7.865h-47.607v-70.79Z" fill="#fff" stroke-width="0"/>
    <path d="m481.673,78.918h12.833l19.043,55.059,19.043-55.059h12.833v70.79h-9.522v-54.231l-19.043,54.231h-6.624l-19.043-54.231v54.231h-9.521v-70.79Z" fill="#fff" stroke-width="0"/>
  </g>
</svg>