<?xml version="1.0" encoding="UTF-8"?>
<svg id="SDU_logo" data-name="SDU logo" xmlns="http://www.w3.org/2000/svg" viewBox="0 0 708.534 272.764">
  <path d="m163.108,80.06v114.22h114.22v-114.22h-114.22Zm65.88,14.81h32.24v6.3h-12.52v29.37h-7.07v-29.37h-12.65v-6.3Zm-24.9,84.54h-24.85v-35.67h23.88v6.3h-16.81v7.62h15.66v6.3h-15.66v9.16h17.78v6.29Zm-1.98-51.47c-2.19,2.18-5.68,3.28-10.4,3.28-4.59,0-8.22-1.3-10.79-3.86-1.98-1.98-2.95-4.87-2.89-8.6l.02-.99,7.07.02-.02,1.01c-.04,2.07.36,3.59,1.16,4.38,1.15,1.16,3.05,1.74,5.64,1.74,2.33,0,4.04-.52,5.06-1.54.77-.77,1.16-1.5,1.16-2.17,0-.81-.24-1.44-.77-1.96-.36-.37-1.13-.95-2.71-1.67-1.28-.64-2.96-1.41-5.01-2.31-2.48-1.11-4.27-1.91-5.61-2.52-1.13-.42-2.2-1.11-3.1-2.01-1.41-1.41-2.12-3.28-2.12-5.57,0-2.79,1.04-5.25,3.09-7.3,1.03-1.04,2.36-1.82,3.93-2.34,1.52-.5,3.31-.75,5.31-.75,4.33,0,7.7,1.17,10.01,3.48,2.14,2.14,3.17,4.71,3.08,7.65l-.03.97-7.08-.02.04-1.04c.06-1.33-.31-2.35-1.16-3.19-.89-.9-2.4-1.36-4.48-1.36-2.9,0-4.14.63-4.67,1.16-.66.66-.97,1.35-.97,2.17,0,.76.14,1.33.39,1.58.34.35,1.13.9,2.94,1.6l.18.08c2.82,1.22,6.11,2.68,10,4.42,1.14.43,2.27,1.18,3.3,2.21,1.67,1.67,2.51,3.67,2.51,5.95,0,2.92-1.03,5.45-3.08,7.5Zm59.21,51.49h-7.08v-18.92l-6.64,18.92h-4.95l-6.65-18.92v18.92h-7.07v-35.67h8.36l7.84,22.98,7.96-22.98h8.23v35.67Z" fill="#fff" stroke-width="0"/>
  <g>
    <path d="m301.81,160.021c.571,0,1.059.203,1.463.609.404.406.607.896.607,1.469,0,.562-.202,1.045-.607,1.451-.404.406-.892.609-1.463.609-.559,0-1.041-.203-1.445-.609-.404-.406-.606-.89-.606-1.451,0-.573.202-1.063.606-1.469.404-.406.886-.609,1.445-.609Zm-1.245,8.027h2.508v19.494h-2.508v-19.494Z" fill="#fff" stroke-width="0"/>
    <path d="m317.748,168.048h2.508v3.584c.991-1.362,2.13-2.383,3.419-3.064s2.727-1.021,4.314-1.021c2.768,0,5.137.998,7.106,2.992,1.969,1.995,2.954,4.396,2.954,7.203,0,2.867-.976,5.301-2.927,7.301-1.951,2.001-4.305,3.001-7.061,3.001-1.552,0-2.977-.322-4.278-.967s-2.476-1.606-3.526-2.885v10.482h-2.508v-26.626h0Zm10.034,1.917c-2.169,0-3.995.758-5.479,2.273s-2.225,3.401-2.225,5.656c0,1.48.331,2.81.992,3.991s1.609,2.118,2.842,2.81c1.234.692,2.535,1.038,3.906,1.038,1.347,0,2.613-.349,3.799-1.047s2.13-1.673,2.834-2.926c.703-1.253,1.055-2.565,1.055-3.937,0-1.384-.349-2.696-1.046-3.937s-1.636-2.205-2.815-2.891c-1.18-.686-2.467-1.029-3.861-1.029h-.002Z" fill="#fff" stroke-width="0"/>
    <path d="m341.647,168.048h2.562v2.849c.764-1.123,1.571-1.962,2.419-2.517s1.732-.833,2.652-.833c.693,0,1.433.221,2.222.663l-1.308,2.114c-.526-.227-.968-.34-1.326-.34-.836,0-1.643.344-2.419,1.03-.777.687-1.368,1.753-1.774,3.198-.311,1.111-.466,3.357-.466,6.737v6.594h-2.562v-19.494h0Z" fill="#fff" stroke-width="0"/>
    <path d="m372.308,168.048v19.494h-2.473v-3.351c-1.051,1.278-2.231,2.24-3.539,2.885s-2.739.967-4.291.967c-2.759,0-5.115-1-7.068-3.001s-2.93-4.435-2.93-7.301c0-2.807.985-5.208,2.956-7.203s4.342-2.992,7.113-2.992c1.601,0,3.049.34,4.345,1.021s2.434,1.702,3.413,3.064v-3.584h2.474Zm-10.025,1.917c-1.396,0-2.685.343-3.866,1.029-1.182.686-2.121,1.65-2.819,2.891s-1.047,2.553-1.047,3.937c0,1.372.352,2.685,1.056,3.937.704,1.253,1.65,2.228,2.837,2.926s2.461,1.047,3.821,1.047c1.372,0,2.673-.346,3.902-1.038s2.174-1.629,2.837-2.81c.662-1.181.993-2.512.993-3.991,0-2.255-.743-4.14-2.228-5.656-1.485-1.515-3.314-2.273-5.485-2.273h-.001Z" fill="#fff" stroke-width="0"/>
    <path d="m378.136,160.523h2.508v15.393l9.038-7.868h3.684l-10.715,9.299,11.342,10.195h-3.531l-9.818-8.777v8.777h-2.508v-27.02h0Z" fill="#fff" stroke-width="0"/>
    <path d="m407.259,170.181l-1.613,1.666c-1.342-1.302-2.653-1.953-3.934-1.953-.815,0-1.512.269-2.093.806s-.871,1.165-.871,1.881c0,.633.239,1.236.718,1.81.479.585,1.484,1.272,3.017,2.061,1.867.967,3.136,1.899,3.807,2.795.658.908.987,1.929.987,3.064,0,1.601-.563,2.956-1.687,4.067-1.124,1.111-2.53,1.666-4.217,1.666-1.125,0-2.199-.245-3.221-.735-1.023-.49-1.869-1.165-2.539-2.025l1.577-1.792c1.281,1.445,2.64,2.168,4.077,2.168,1.006,0,1.861-.322,2.568-.968.706-.645,1.06-1.403,1.06-2.275,0-.717-.234-1.356-.7-1.917-.467-.549-1.52-1.242-3.16-2.078-1.76-.908-2.957-1.804-3.591-2.688s-.952-1.893-.952-3.028c0-1.481.505-2.711,1.517-3.691,1.011-.979,2.288-1.469,3.832-1.469,1.795,0,3.601.878,5.42,2.634h-.002Z" fill="#fff" stroke-width="0"/>
    <path d="m412.821,160.021c.571,0,1.059.203,1.463.609.404.406.607.896.607,1.469,0,.562-.202,1.045-.607,1.451-.404.406-.892.609-1.463.609-.559,0-1.041-.203-1.445-.609-.404-.406-.606-.89-.606-1.451,0-.573.202-1.063.606-1.469.404-.406.886-.609,1.445-.609Zm-1.245,8.027h2.509v19.494h-2.509v-19.494Z" fill="#fff" stroke-width="0"/>
    <path d="m429.521,170.181l-1.613,1.666c-1.342-1.302-2.653-1.953-3.934-1.953-.815,0-1.512.269-2.093.806s-.871,1.165-.871,1.881c0,.633.239,1.236.718,1.81.479.585,1.484,1.272,3.017,2.061,1.867.967,3.136,1.899,3.807,2.795.658.908.987,1.929.987,3.064,0,1.601-.563,2.956-1.687,4.067-1.124,1.111-2.53,1.666-4.217,1.666-1.125,0-2.199-.245-3.221-.735-1.023-.49-1.869-1.165-2.539-2.025l1.577-1.792c1.281,1.445,2.64,2.168,4.077,2.168,1.006,0,1.861-.322,2.568-.968.706-.645,1.06-1.403,1.06-2.275,0-.717-.234-1.356-.7-1.917-.467-.549-1.52-1.242-3.16-2.078-1.76-.908-2.957-1.804-3.591-2.688s-.952-1.893-.952-3.028c0-1.481.505-2.711,1.517-3.691,1.011-.979,2.288-1.469,3.832-1.469,1.795,0,3.601.878,5.42,2.634h-.002Z" fill="#fff" stroke-width="0"/>
  </g>
  <g>
    <path d="m302.432,83.886c3.862-3.862,9.793-5.796,17.801-5.796,8.551,0,15.039,2.212,19.457,6.624,3.862,3.868,5.796,8.422,5.796,13.661h-9.521c0-3.312-1.106-6.067-3.312-8.28-2.484-2.484-6.352-3.726-11.591-3.726-5.796,0-9.8,1.106-12.005,3.312-1.934,1.934-2.898,4.14-2.898,6.624s.55,4.282,1.656,5.382c1.378,1.384,3.862,2.762,7.452,4.14,6.345,2.762,13.519,5.938,21.527,9.521,2.206.828,4.276,2.212,6.21,4.14,3.034,3.04,4.554,6.624,4.554,10.763,0,5.524-1.934,10.214-5.796,14.075-4.14,4.14-10.906,6.21-20.285,6.21-9.107,0-16.145-2.484-21.113-7.451-3.59-3.583-5.382-8.829-5.382-15.731h9.521c0,4.968,1.1,8.558,3.312,10.763,3.034,3.04,7.723,4.554,14.075,4.554,5.796,0,10.071-1.378,12.833-4.14,2.206-2.206,3.312-4.411,3.312-6.624,0-2.484-.828-4.554-2.484-6.21-1.384-1.378-3.59-2.756-6.624-4.14-2.762-1.378-6.352-3.034-10.763-4.968-4.968-2.206-8.972-3.997-12.005-5.382-2.212-.828-4.14-2.07-5.796-3.726-2.484-2.484-3.726-5.796-3.726-9.935,0-5.239,1.928-9.793,5.796-13.661h0Z" fill="#fff" stroke-width="0"/>
    <path d="m353.132,78.918h56.715v7.866h-23.596v62.924h-9.521v-62.924h-23.597v-7.866h-.001Z" fill="#fff" stroke-width="0"/>
    <path d="m423.279,78.918h45.537v7.866h-36.016v21.941h33.532v7.866h-33.532v25.252h38.086v7.865h-47.607v-70.79Z" fill="#fff" stroke-width="0"/>
    <path d="m481.674,78.918h12.833l19.043,55.059,19.043-55.059h12.833v70.79h-9.522v-54.231l-19.043,54.231h-6.624l-19.043-54.231v54.231h-9.521v-70.79h0Z" fill="#fff" stroke-width="0"/>
  </g>
</svg>